<svg xmlns="http://www.w3.org/2000/svg" xmlns:xlink="http://www.w3.org/1999/xlink" width="500" zoomAndPan="magnify" viewBox="0 0 375 374.999991" height="500" preserveAspectRatio="xMidYMid meet" version="1.0"><defs><g/><clipPath id="7d7a61c400"><path d="M 148.15625 97.425781 L 226.90625 97.425781 L 226.90625 192 L 148.15625 192 Z M 148.15625 97.425781 " clip-rule="nonzero"/></clipPath></defs><rect x="-37.5" width="450" fill="#ffffff" y="-37.499999" height="449.999989" fill-opacity="1"/><rect x="-37.5" width="450" fill="#ffffff" y="-37.499999" height="449.999989" fill-opacity="1"/><g clip-path="url(#7d7a61c400)"><path fill="#4285f4" d="M 153.359375 186.796875 L 153.359375 146.613281 L 221.773438 146.613281 L 221.773438 186.796875 Z M 206.171875 132.152344 C 203.589844 132.152344 203.359375 128.230469 206.171875 128.074219 C 208.867188 128.074219 208.867188 132.152344 206.171875 132.152344 Z M 168.710938 132.152344 C 166.015625 132.152344 166.011719 128.046875 168.75 128.082031 C 171.410156 128.132812 171.378906 132.152344 168.710938 132.152344 Z M 166.199219 118.390625 L 166.199219 123.542969 C 158.902344 126.339844 160.933594 137.171875 168.710938 137.171875 C 176.457031 137.171875 178.535156 126.390625 171.21875 123.558594 L 171.21875 118.390625 L 203.660156 118.390625 L 203.660156 123.554688 C 196.367188 126.34375 198.394531 137.171875 206.171875 137.171875 C 213.945312 137.171875 215.992188 126.34375 208.679688 123.542969 L 208.679688 118.390625 L 221.773438 118.390625 L 221.773438 141.59375 L 153.359375 141.59375 L 153.359375 118.390625 Z M 226.792969 113.371094 L 208.679688 113.371094 L 208.679688 97.398438 L 203.660156 97.398438 L 203.660156 113.371094 L 171.21875 113.371094 L 171.21875 97.398438 L 166.199219 97.398438 L 166.199219 113.371094 L 148.339844 113.371094 L 148.339844 191.816406 L 226.792969 191.816406 L 226.792969 113.371094 " fill-opacity="1" fill-rule="nonzero"/></g><path fill="#4285f4" d="M 204.71875 153.386719 L 213.371094 153.386719 L 213.371094 156.046875 L 204.71875 156.046875 Z M 201.136719 159.632812 L 216.957031 159.632812 L 216.957031 149.800781 L 201.136719 149.800781 L 201.136719 159.632812 " fill-opacity="1" fill-rule="nonzero"/><path fill="#4285f4" d="M 182.988281 153.386719 L 191.644531 153.386719 L 191.644531 156.046875 L 182.988281 156.046875 Z M 179.40625 159.632812 L 195.230469 159.632812 L 195.230469 149.800781 L 179.40625 149.800781 L 179.40625 159.632812 " fill-opacity="1" fill-rule="nonzero"/><path fill="#4285f4" d="M 161.261719 153.386719 L 169.914062 153.386719 L 169.914062 156.046875 L 161.261719 156.046875 Z M 157.675781 159.632812 L 173.5 159.632812 L 173.5 149.800781 L 157.675781 149.800781 L 157.675781 159.632812 " fill-opacity="1" fill-rule="nonzero"/><path fill="#4285f4" d="M 204.71875 166.371094 L 213.371094 166.371094 L 213.371094 169.03125 L 204.71875 169.03125 Z M 201.136719 172.617188 L 216.957031 172.617188 L 216.957031 162.785156 L 201.136719 162.785156 L 201.136719 172.617188 " fill-opacity="1" fill-rule="nonzero"/><path fill="#4285f4" d="M 182.988281 166.371094 L 191.644531 166.371094 L 191.644531 169.03125 L 182.988281 169.03125 Z M 179.40625 172.617188 L 195.230469 172.617188 L 195.230469 162.785156 L 179.40625 162.785156 L 179.40625 172.617188 " fill-opacity="1" fill-rule="nonzero"/><path fill="#4285f4" d="M 161.261719 166.371094 L 169.914062 166.371094 L 169.914062 169.03125 L 161.261719 169.03125 Z M 157.675781 172.617188 L 173.5 172.617188 L 173.5 162.785156 L 157.675781 162.785156 L 157.675781 172.617188 " fill-opacity="1" fill-rule="nonzero"/><path fill="#4285f4" d="M 204.71875 179.363281 L 213.371094 179.363281 L 213.371094 182.023438 L 204.71875 182.023438 Z M 201.136719 185.609375 L 216.957031 185.609375 L 216.957031 175.777344 L 201.136719 175.777344 L 201.136719 185.609375 " fill-opacity="1" fill-rule="nonzero"/><path fill="#4285f4" d="M 182.988281 179.363281 L 191.644531 179.363281 L 191.644531 182.023438 L 182.988281 182.023438 Z M 179.40625 185.609375 L 195.230469 185.609375 L 195.230469 175.777344 L 179.40625 175.777344 L 179.40625 185.609375 " fill-opacity="1" fill-rule="nonzero"/><path fill="#4285f4" d="M 161.261719 179.363281 L 169.914062 179.363281 L 169.914062 182.023438 L 161.261719 182.023438 Z M 157.675781 185.609375 L 173.5 185.609375 L 173.5 175.777344 L 157.675781 175.777344 L 157.675781 185.609375 " fill-opacity="1" fill-rule="nonzero"/><g fill="#4285f4" fill-opacity="1"><g transform="translate(52.747974, 247.012719)"><g><path d="M 16.75 0.65625 C 12 0.65625 8.363281 -0.75 5.84375 -3.5625 C 3.320312 -6.375 2.0625 -10.507812 2.0625 -15.96875 L 2.0625 -16.53125 C 2.0625 -21.988281 3.328125 -26.117188 5.859375 -28.921875 C 8.398438 -31.722656 12.046875 -33.125 16.796875 -33.125 C 19.953125 -33.125 22.578125 -32.5625 24.671875 -31.4375 C 26.773438 -30.3125 28.363281 -28.804688 29.4375 -26.921875 C 30.519531 -25.046875 31.101562 -22.96875 31.1875 -20.6875 L 31.1875 -20.515625 L 25.421875 -20.515625 L 25.421875 -20.65625 C 25.304688 -21.988281 24.921875 -23.21875 24.265625 -24.34375 C 23.609375 -25.46875 22.664062 -26.375 21.4375 -27.0625 C 20.207031 -27.75 18.675781 -28.09375 16.84375 -28.09375 C 14.007812 -28.09375 11.828125 -27.132812 10.296875 -25.21875 C 8.765625 -23.3125 8 -20.488281 8 -16.75 L 8 -15.75 C 8 -12.019531 8.757812 -9.191406 10.28125 -7.265625 C 11.800781 -5.335938 13.972656 -4.375 16.796875 -4.375 C 19.335938 -4.375 21.382812 -5.015625 22.9375 -6.296875 C 24.5 -7.578125 25.34375 -9.414062 25.46875 -11.8125 L 25.46875 -12.03125 L 31.28125 -12.03125 L 31.28125 -11.859375 C 31.195312 -9.554688 30.613281 -7.457031 29.53125 -5.5625 C 28.445312 -3.664062 26.847656 -2.15625 24.734375 -1.03125 C 22.617188 0.09375 19.957031 0.65625 16.75 0.65625 Z M 16.75 0.65625 "/></g></g></g><g fill="#4285f4" fill-opacity="1"><g transform="translate(96.184083, 247.012719)"><g><path d="M 3.40625 0 L 3.40625 -33.46875 L 8.84375 -33.46875 L 8.84375 0 Z M 3.40625 0 "/></g></g></g><g fill="#4285f4" fill-opacity="1"><g transform="translate(118.712423, 247.012719)"><g><path d="M 14 0.65625 C 10.09375 0.65625 7.085938 -0.515625 4.984375 -2.859375 C 2.890625 -5.210938 1.84375 -8.503906 1.84375 -12.734375 L 1.84375 -13.390625 C 1.84375 -17.472656 2.90625 -20.671875 5.03125 -22.984375 C 7.15625 -25.304688 10.203125 -26.46875 14.171875 -26.46875 C 18.171875 -26.46875 21.191406 -25.359375 23.234375 -23.140625 C 25.273438 -20.921875 26.296875 -17.6875 26.296875 -13.4375 L 26.296875 -11.46875 L 7.3125 -11.46875 C 7.476562 -8.988281 8.140625 -7.132812 9.296875 -5.90625 C 10.453125 -4.675781 12.050781 -4.0625 14.09375 -4.0625 C 16.21875 -4.0625 17.8125 -4.492188 18.875 -5.359375 C 19.9375 -6.222656 20.570312 -7.394531 20.78125 -8.875 L 26.125 -8.875 C 25.851562 -6.050781 24.726562 -3.753906 22.75 -1.984375 C 20.769531 -0.222656 17.851562 0.65625 14 0.65625 Z M 7.34375 -15.21875 L 20.875 -15.21875 C 20.75 -17.257812 20.140625 -18.859375 19.046875 -20.015625 C 17.953125 -21.171875 16.3125 -21.75 14.125 -21.75 C 12.207031 -21.75 10.664062 -21.222656 9.5 -20.171875 C 8.332031 -19.117188 7.613281 -17.46875 7.34375 -15.21875 Z M 7.34375 -15.21875 "/></g></g></g><g fill="#4285f4" fill-opacity="1"><g transform="translate(157.030951, 247.012719)"><g><path d="M 11.375 0.65625 C 8.957031 0.65625 7.0625 0.238281 5.6875 -0.59375 C 4.3125 -1.425781 3.335938 -2.488281 2.765625 -3.78125 C 2.203125 -5.082031 1.921875 -6.414062 1.921875 -7.78125 C 1.921875 -9.21875 2.238281 -10.554688 2.875 -11.796875 C 3.519531 -13.035156 4.601562 -14.046875 6.125 -14.828125 C 7.644531 -15.617188 9.6875 -16.015625 12.25 -16.015625 C 13.9375 -16.015625 15.507812 -15.859375 16.96875 -15.546875 C 18.425781 -15.242188 19.582031 -14.929688 20.4375 -14.609375 L 20.4375 -16.234375 C 20.4375 -17.335938 20.238281 -18.347656 19.84375 -19.265625 C 19.445312 -20.191406 18.78125 -20.929688 17.84375 -21.484375 C 16.914062 -22.035156 15.632812 -22.3125 14 -22.3125 C 12.570312 -22.3125 11.425781 -22.070312 10.5625 -21.59375 C 9.707031 -21.113281 9.082031 -20.5 8.6875 -19.75 C 8.289062 -19.007812 8.0625 -18.21875 8 -17.375 L 2.75 -17.375 C 2.8125 -18.332031 3.023438 -19.34375 3.390625 -20.40625 C 3.753906 -21.46875 4.351562 -22.457031 5.1875 -23.375 C 6.019531 -24.300781 7.15625 -25.046875 8.59375 -25.609375 C 10.039062 -26.179688 11.875 -26.46875 14.09375 -26.46875 C 16.476562 -26.46875 18.4375 -26.164062 19.96875 -25.5625 C 21.5 -24.96875 22.6875 -24.148438 23.53125 -23.109375 C 24.382812 -22.078125 24.976562 -20.898438 25.3125 -19.578125 C 25.644531 -18.253906 25.8125 -16.863281 25.8125 -15.40625 L 25.8125 0 L 20.4375 0 L 20.4375 -2.9375 L 20.65625 -5.296875 L 20.609375 -5.296875 C 19.847656 -3.515625 18.679688 -2.078125 17.109375 -0.984375 C 15.535156 0.109375 13.625 0.65625 11.375 0.65625 Z M 7.265625 -7.96875 C 7.265625 -7.257812 7.429688 -6.59375 7.765625 -5.96875 C 8.097656 -5.34375 8.65625 -4.828125 9.4375 -4.421875 C 10.226562 -4.015625 11.328125 -3.8125 12.734375 -3.8125 C 14.421875 -3.8125 15.800781 -4.175781 16.875 -4.90625 C 17.957031 -5.632812 18.785156 -6.53125 19.359375 -7.59375 C 19.929688 -8.65625 20.273438 -9.695312 20.390625 -10.71875 C 19.566406 -11.039062 18.484375 -11.351562 17.140625 -11.65625 C 15.804688 -11.96875 14.5 -12.125 13.21875 -12.125 C 11.613281 -12.125 10.378906 -11.910156 9.515625 -11.484375 C 8.648438 -11.054688 8.054688 -10.519531 7.734375 -9.875 C 7.421875 -9.238281 7.265625 -8.601562 7.265625 -7.96875 Z M 7.265625 -7.96875 "/></g></g></g><g fill="#4285f4" fill-opacity="1"><g transform="translate(196.268004, 247.012719)"><g><path d="M 3.40625 0 L 3.40625 -25.8125 L 8.84375 -25.8125 L 8.84375 -23.09375 L 8.578125 -20.21875 L 8.65625 -20.21875 C 9.363281 -22.132812 10.488281 -23.65625 12.03125 -24.78125 C 13.570312 -25.90625 15.363281 -26.46875 17.40625 -26.46875 C 18.488281 -26.46875 19.453125 -26.351562 20.296875 -26.125 L 20.296875 -20.953125 C 19.421875 -21.242188 18.382812 -21.390625 17.1875 -21.390625 C 15.4375 -21.390625 13.941406 -21.003906 12.703125 -20.234375 C 11.460938 -19.460938 10.507812 -18.40625 9.84375 -17.0625 C 9.175781 -15.71875 8.84375 -14.171875 8.84375 -12.421875 L 8.84375 0 Z M 3.40625 0 "/></g></g></g><g fill="#4285f4" fill-opacity="1"><g transform="translate(227.325665, 247.012719)"><g><path d="M 16.75 0.65625 C 12 0.65625 8.363281 -0.75 5.84375 -3.5625 C 3.320312 -6.375 2.0625 -10.507812 2.0625 -15.96875 L 2.0625 -16.53125 C 2.0625 -21.988281 3.328125 -26.117188 5.859375 -28.921875 C 8.398438 -31.722656 12.046875 -33.125 16.796875 -33.125 C 19.953125 -33.125 22.578125 -32.5625 24.671875 -31.4375 C 26.773438 -30.3125 28.363281 -28.804688 29.4375 -26.921875 C 30.519531 -25.046875 31.101562 -22.96875 31.1875 -20.6875 L 31.1875 -20.515625 L 25.421875 -20.515625 L 25.421875 -20.65625 C 25.304688 -21.988281 24.921875 -23.21875 24.265625 -24.34375 C 23.609375 -25.46875 22.664062 -26.375 21.4375 -27.0625 C 20.207031 -27.75 18.675781 -28.09375 16.84375 -28.09375 C 14.007812 -28.09375 11.828125 -27.132812 10.296875 -25.21875 C 8.765625 -23.3125 8 -20.488281 8 -16.75 L 8 -15.75 C 8 -12.019531 8.757812 -9.191406 10.28125 -7.265625 C 11.800781 -5.335938 13.972656 -4.375 16.796875 -4.375 C 19.335938 -4.375 21.382812 -5.015625 22.9375 -6.296875 C 24.5 -7.578125 25.34375 -9.414062 25.46875 -11.8125 L 25.46875 -12.03125 L 31.28125 -12.03125 L 31.28125 -11.859375 C 31.195312 -9.554688 30.613281 -7.457031 29.53125 -5.5625 C 28.445312 -3.664062 26.847656 -2.15625 24.734375 -1.03125 C 22.617188 0.09375 19.957031 0.65625 16.75 0.65625 Z M 16.75 0.65625 "/></g></g></g><g fill="#4285f4" fill-opacity="1"><g transform="translate(270.76177, 247.012719)"><g><path d="M 11.375 0.65625 C 8.957031 0.65625 7.0625 0.238281 5.6875 -0.59375 C 4.3125 -1.425781 3.335938 -2.488281 2.765625 -3.78125 C 2.203125 -5.082031 1.921875 -6.414062 1.921875 -7.78125 C 1.921875 -9.21875 2.238281 -10.554688 2.875 -11.796875 C 3.519531 -13.035156 4.601562 -14.046875 6.125 -14.828125 C 7.644531 -15.617188 9.6875 -16.015625 12.25 -16.015625 C 13.9375 -16.015625 15.507812 -15.859375 16.96875 -15.546875 C 18.425781 -15.242188 19.582031 -14.929688 20.4375 -14.609375 L 20.4375 -16.234375 C 20.4375 -17.335938 20.238281 -18.347656 19.84375 -19.265625 C 19.445312 -20.191406 18.78125 -20.929688 17.84375 -21.484375 C 16.914062 -22.035156 15.632812 -22.3125 14 -22.3125 C 12.570312 -22.3125 11.425781 -22.070312 10.5625 -21.59375 C 9.707031 -21.113281 9.082031 -20.5 8.6875 -19.75 C 8.289062 -19.007812 8.0625 -18.21875 8 -17.375 L 2.75 -17.375 C 2.8125 -18.332031 3.023438 -19.34375 3.390625 -20.40625 C 3.753906 -21.46875 4.351562 -22.457031 5.1875 -23.375 C 6.019531 -24.300781 7.15625 -25.046875 8.59375 -25.609375 C 10.039062 -26.179688 11.875 -26.46875 14.09375 -26.46875 C 16.476562 -26.46875 18.4375 -26.164062 19.96875 -25.5625 C 21.5 -24.96875 22.6875 -24.148438 23.53125 -23.109375 C 24.382812 -22.078125 24.976562 -20.898438 25.3125 -19.578125 C 25.644531 -18.253906 25.8125 -16.863281 25.8125 -15.40625 L 25.8125 0 L 20.4375 0 L 20.4375 -2.9375 L 20.65625 -5.296875 L 20.609375 -5.296875 C 19.847656 -3.515625 18.679688 -2.078125 17.109375 -0.984375 C 15.535156 0.109375 13.625 0.65625 11.375 0.65625 Z M 7.265625 -7.96875 C 7.265625 -7.257812 7.429688 -6.59375 7.765625 -5.96875 C 8.097656 -5.34375 8.65625 -4.828125 9.4375 -4.421875 C 10.226562 -4.015625 11.328125 -3.8125 12.734375 -3.8125 C 14.421875 -3.8125 15.800781 -4.175781 16.875 -4.90625 C 17.957031 -5.632812 18.785156 -6.53125 19.359375 -7.59375 C 19.929688 -8.65625 20.273438 -9.695312 20.390625 -10.71875 C 19.566406 -11.039062 18.484375 -11.351562 17.140625 -11.65625 C 15.804688 -11.96875 14.5 -12.125 13.21875 -12.125 C 11.613281 -12.125 10.378906 -11.910156 9.515625 -11.484375 C 8.648438 -11.054688 8.054688 -10.519531 7.734375 -9.875 C 7.421875 -9.238281 7.265625 -8.601562 7.265625 -7.96875 Z M 7.265625 -7.96875 "/></g></g></g><g fill="#4285f4" fill-opacity="1"><g transform="translate(309.998838, 247.012719)"><g><path d="M 3.40625 0 L 3.40625 -33.46875 L 8.84375 -33.46875 L 8.84375 0 Z M 3.40625 0 "/></g></g></g><g fill="#4285f4" fill-opacity="1"><g transform="translate(90.286684, 273.700266)"><g><path d="M 0.984375 0 L 0.984375 -13.015625 L 5.484375 -13.015625 L 5.484375 -3.296875 L 10.375 -3.296875 L 10.375 0 Z M 0.984375 0 "/></g></g></g><g fill="#4285f4" fill-opacity="1"><g transform="translate(107.710734, 273.700266)"><g><path d="M 0.984375 0 L 0.984375 -13.015625 L 11 -13.015625 L 11 -9.796875 L 5.484375 -9.796875 L 5.484375 -7.984375 L 10.4375 -7.984375 L 10.4375 -5.203125 L 5.484375 -5.203125 L 5.484375 -3.25 L 11.140625 -3.25 L 11.140625 0 Z M 0.984375 0 "/></g></g></g><g fill="#4285f4" fill-opacity="1"><g transform="translate(126.061771, 273.700266)"><g><path d="M 6.28125 0.328125 C 4.3125 0.328125 2.84375 -0.078125 1.875 -0.890625 C 0.90625 -1.710938 0.414062 -2.828125 0.40625 -4.234375 L 4.640625 -4.234375 C 4.648438 -3.804688 4.769531 -3.445312 5 -3.15625 C 5.226562 -2.863281 5.660156 -2.71875 6.296875 -2.71875 C 6.796875 -2.71875 7.15625 -2.8125 7.375 -3 C 7.59375 -3.195312 7.703125 -3.441406 7.703125 -3.734375 C 7.703125 -4.003906 7.632812 -4.21875 7.5 -4.375 C 7.375 -4.539062 7.140625 -4.691406 6.796875 -4.828125 C 6.453125 -4.972656 5.945312 -5.132812 5.28125 -5.3125 C 4.03125 -5.582031 3.070312 -5.898438 2.40625 -6.265625 C 1.738281 -6.628906 1.273438 -7.0625 1.015625 -7.5625 C 0.753906 -8.070312 0.625 -8.675781 0.625 -9.375 L 0.625 -9.390625 C 0.625 -10.160156 0.820312 -10.835938 1.21875 -11.421875 C 1.613281 -12.015625 2.222656 -12.476562 3.046875 -12.8125 C 3.867188 -13.144531 4.914062 -13.3125 6.1875 -13.3125 C 7.488281 -13.3125 8.550781 -13.125 9.375 -12.75 C 10.195312 -12.375 10.804688 -11.847656 11.203125 -11.171875 C 11.597656 -10.503906 11.800781 -9.71875 11.8125 -8.8125 L 7.75 -8.8125 C 7.738281 -9.25 7.625 -9.597656 7.40625 -9.859375 C 7.195312 -10.128906 6.804688 -10.265625 6.234375 -10.265625 C 5.765625 -10.265625 5.429688 -10.179688 5.234375 -10.015625 C 5.046875 -9.847656 4.953125 -9.640625 4.953125 -9.390625 L 4.953125 -9.375 C 4.953125 -9.070312 5.070312 -8.828125 5.3125 -8.640625 C 5.5625 -8.460938 5.992188 -8.304688 6.609375 -8.171875 C 7.734375 -7.953125 8.648438 -7.695312 9.359375 -7.40625 C 10.078125 -7.125 10.628906 -6.804688 11.015625 -6.453125 C 11.410156 -6.097656 11.6875 -5.695312 11.84375 -5.25 C 12 -4.800781 12.078125 -4.304688 12.078125 -3.765625 C 12.078125 -2.441406 11.566406 -1.425781 10.546875 -0.71875 C 9.535156 -0.0195312 8.113281 0.328125 6.28125 0.328125 Z M 6.28125 0.328125 "/></g></g></g><g fill="#4285f4" fill-opacity="1"><g transform="translate(145.304817, 273.700266)"><g><path d="M 6.28125 0.328125 C 4.3125 0.328125 2.84375 -0.078125 1.875 -0.890625 C 0.90625 -1.710938 0.414062 -2.828125 0.40625 -4.234375 L 4.640625 -4.234375 C 4.648438 -3.804688 4.769531 -3.445312 5 -3.15625 C 5.226562 -2.863281 5.660156 -2.71875 6.296875 -2.71875 C 6.796875 -2.71875 7.15625 -2.8125 7.375 -3 C 7.59375 -3.195312 7.703125 -3.441406 7.703125 -3.734375 C 7.703125 -4.003906 7.632812 -4.21875 7.5 -4.375 C 7.375 -4.539062 7.140625 -4.691406 6.796875 -4.828125 C 6.453125 -4.972656 5.945312 -5.132812 5.28125 -5.3125 C 4.03125 -5.582031 3.070312 -5.898438 2.40625 -6.265625 C 1.738281 -6.628906 1.273438 -7.0625 1.015625 -7.5625 C 0.753906 -8.070312 0.625 -8.675781 0.625 -9.375 L 0.625 -9.390625 C 0.625 -10.160156 0.820312 -10.835938 1.21875 -11.421875 C 1.613281 -12.015625 2.222656 -12.476562 3.046875 -12.8125 C 3.867188 -13.144531 4.914062 -13.3125 6.1875 -13.3125 C 7.488281 -13.3125 8.550781 -13.125 9.375 -12.75 C 10.195312 -12.375 10.804688 -11.847656 11.203125 -11.171875 C 11.597656 -10.503906 11.800781 -9.71875 11.8125 -8.8125 L 7.75 -8.8125 C 7.738281 -9.25 7.625 -9.597656 7.40625 -9.859375 C 7.195312 -10.128906 6.804688 -10.265625 6.234375 -10.265625 C 5.765625 -10.265625 5.429688 -10.179688 5.234375 -10.015625 C 5.046875 -9.847656 4.953125 -9.640625 4.953125 -9.390625 L 4.953125 -9.375 C 4.953125 -9.070312 5.070312 -8.828125 5.3125 -8.640625 C 5.5625 -8.460938 5.992188 -8.304688 6.609375 -8.171875 C 7.734375 -7.953125 8.648438 -7.695312 9.359375 -7.40625 C 10.078125 -7.125 10.628906 -6.804688 11.015625 -6.453125 C 11.410156 -6.097656 11.6875 -5.695312 11.84375 -5.25 C 12 -4.800781 12.078125 -4.304688 12.078125 -3.765625 C 12.078125 -2.441406 11.566406 -1.425781 10.546875 -0.71875 C 9.535156 -0.0195312 8.113281 0.328125 6.28125 0.328125 Z M 6.28125 0.328125 "/></g></g></g><g fill="#4285f4" fill-opacity="1"><g transform="translate(164.547863, 273.700266)"><g/></g></g><g fill="#4285f4" fill-opacity="1"><g transform="translate(177.249552, 273.700266)"><g><path d="M 6.28125 0.328125 C 4.3125 0.328125 2.84375 -0.078125 1.875 -0.890625 C 0.90625 -1.710938 0.414062 -2.828125 0.40625 -4.234375 L 4.640625 -4.234375 C 4.648438 -3.804688 4.769531 -3.445312 5 -3.15625 C 5.226562 -2.863281 5.660156 -2.71875 6.296875 -2.71875 C 6.796875 -2.71875 7.15625 -2.8125 7.375 -3 C 7.59375 -3.195312 7.703125 -3.441406 7.703125 -3.734375 C 7.703125 -4.003906 7.632812 -4.21875 7.5 -4.375 C 7.375 -4.539062 7.140625 -4.691406 6.796875 -4.828125 C 6.453125 -4.972656 5.945312 -5.132812 5.28125 -5.3125 C 4.03125 -5.582031 3.070312 -5.898438 2.40625 -6.265625 C 1.738281 -6.628906 1.273438 -7.0625 1.015625 -7.5625 C 0.753906 -8.070312 0.625 -8.675781 0.625 -9.375 L 0.625 -9.390625 C 0.625 -10.160156 0.820312 -10.835938 1.21875 -11.421875 C 1.613281 -12.015625 2.222656 -12.476562 3.046875 -12.8125 C 3.867188 -13.144531 4.914062 -13.3125 6.1875 -13.3125 C 7.488281 -13.3125 8.550781 -13.125 9.375 -12.75 C 10.195312 -12.375 10.804688 -11.847656 11.203125 -11.171875 C 11.597656 -10.503906 11.800781 -9.71875 11.8125 -8.8125 L 7.75 -8.8125 C 7.738281 -9.25 7.625 -9.597656 7.40625 -9.859375 C 7.195312 -10.128906 6.804688 -10.265625 6.234375 -10.265625 C 5.765625 -10.265625 5.429688 -10.179688 5.234375 -10.015625 C 5.046875 -9.847656 4.953125 -9.640625 4.953125 -9.390625 L 4.953125 -9.375 C 4.953125 -9.070312 5.070312 -8.828125 5.3125 -8.640625 C 5.5625 -8.460938 5.992188 -8.304688 6.609375 -8.171875 C 7.734375 -7.953125 8.648438 -7.695312 9.359375 -7.40625 C 10.078125 -7.125 10.628906 -6.804688 11.015625 -6.453125 C 11.410156 -6.097656 11.6875 -5.695312 11.84375 -5.25 C 12 -4.800781 12.078125 -4.304688 12.078125 -3.765625 C 12.078125 -2.441406 11.566406 -1.425781 10.546875 -0.71875 C 9.535156 -0.0195312 8.113281 0.328125 6.28125 0.328125 Z M 6.28125 0.328125 "/></g></g></g><g fill="#4285f4" fill-opacity="1"><g transform="translate(196.492598, 273.700266)"><g><path d="M 3.390625 0 L 3.390625 -9.734375 L 0.140625 -9.734375 L 0.140625 -13.015625 L 11.171875 -13.015625 L 11.171875 -9.734375 L 7.890625 -9.734375 L 7.890625 0 Z M 3.390625 0 "/></g></g></g><g fill="#4285f4" fill-opacity="1"><g transform="translate(214.54631, 273.700266)"><g><path d="M 0.984375 0 L 0.984375 -13.015625 L 7.53125 -13.015625 C 9.4375 -13.015625 10.8125 -12.660156 11.65625 -11.953125 C 12.507812 -11.242188 12.9375 -10.269531 12.9375 -9.03125 L 12.9375 -8.921875 C 12.9375 -8.085938 12.734375 -7.378906 12.328125 -6.796875 C 11.921875 -6.222656 11.332031 -5.835938 10.5625 -5.640625 L 10.5625 -5.625 C 11.226562 -5.457031 11.71875 -5.125 12.03125 -4.625 C 12.351562 -4.132812 12.539062 -3.472656 12.59375 -2.640625 L 12.6875 -1.6875 C 12.757812 -1.03125 12.894531 -0.46875 13.09375 0 L 8.625 0 C 8.507812 -0.375 8.398438 -1.035156 8.296875 -1.984375 L 8.1875 -2.78125 C 8.144531 -3.1875 8.003906 -3.492188 7.765625 -3.703125 C 7.523438 -3.921875 7.132812 -4.03125 6.59375 -4.03125 L 5.484375 -4.03125 L 5.484375 0 Z M 5.484375 -6.90625 L 7.015625 -6.90625 C 7.460938 -6.90625 7.8125 -7.015625 8.0625 -7.234375 C 8.320312 -7.460938 8.453125 -7.835938 8.453125 -8.359375 L 8.453125 -8.5 C 8.453125 -9.382812 8 -9.828125 7.09375 -9.828125 L 5.484375 -9.828125 Z M 5.484375 -6.90625 "/></g></g></g><g fill="#4285f4" fill-opacity="1"><g transform="translate(234.628887, 273.700266)"><g><path d="M 0.984375 0 L 0.984375 -13.015625 L 11 -13.015625 L 11 -9.796875 L 5.484375 -9.796875 L 5.484375 -7.984375 L 10.4375 -7.984375 L 10.4375 -5.203125 L 5.484375 -5.203125 L 5.484375 -3.25 L 11.140625 -3.25 L 11.140625 0 Z M 0.984375 0 "/></g></g></g><g fill="#4285f4" fill-opacity="1"><g transform="translate(252.979916, 273.700266)"><g><path d="M 6.28125 0.328125 C 4.3125 0.328125 2.84375 -0.078125 1.875 -0.890625 C 0.90625 -1.710938 0.414062 -2.828125 0.40625 -4.234375 L 4.640625 -4.234375 C 4.648438 -3.804688 4.769531 -3.445312 5 -3.15625 C 5.226562 -2.863281 5.660156 -2.71875 6.296875 -2.71875 C 6.796875 -2.71875 7.15625 -2.8125 7.375 -3 C 7.59375 -3.195312 7.703125 -3.441406 7.703125 -3.734375 C 7.703125 -4.003906 7.632812 -4.21875 7.5 -4.375 C 7.375 -4.539062 7.140625 -4.691406 6.796875 -4.828125 C 6.453125 -4.972656 5.945312 -5.132812 5.28125 -5.3125 C 4.03125 -5.582031 3.070312 -5.898438 2.40625 -6.265625 C 1.738281 -6.628906 1.273438 -7.0625 1.015625 -7.5625 C 0.753906 -8.070312 0.625 -8.675781 0.625 -9.375 L 0.625 -9.390625 C 0.625 -10.160156 0.820312 -10.835938 1.21875 -11.421875 C 1.613281 -12.015625 2.222656 -12.476562 3.046875 -12.8125 C 3.867188 -13.144531 4.914062 -13.3125 6.1875 -13.3125 C 7.488281 -13.3125 8.550781 -13.125 9.375 -12.75 C 10.195312 -12.375 10.804688 -11.847656 11.203125 -11.171875 C 11.597656 -10.503906 11.800781 -9.71875 11.8125 -8.8125 L 7.75 -8.8125 C 7.738281 -9.25 7.625 -9.597656 7.40625 -9.859375 C 7.195312 -10.128906 6.804688 -10.265625 6.234375 -10.265625 C 5.765625 -10.265625 5.429688 -10.179688 5.234375 -10.015625 C 5.046875 -9.847656 4.953125 -9.640625 4.953125 -9.390625 L 4.953125 -9.375 C 4.953125 -9.070312 5.070312 -8.828125 5.3125 -8.640625 C 5.5625 -8.460938 5.992188 -8.304688 6.609375 -8.171875 C 7.734375 -7.953125 8.648438 -7.695312 9.359375 -7.40625 C 10.078125 -7.125 10.628906 -6.804688 11.015625 -6.453125 C 11.410156 -6.097656 11.6875 -5.695312 11.84375 -5.25 C 12 -4.800781 12.078125 -4.304688 12.078125 -3.765625 C 12.078125 -2.441406 11.566406 -1.425781 10.546875 -0.71875 C 9.535156 -0.0195312 8.113281 0.328125 6.28125 0.328125 Z M 6.28125 0.328125 "/></g></g></g><g fill="#4285f4" fill-opacity="1"><g transform="translate(272.222954, 273.700266)"><g><path d="M 6.28125 0.328125 C 4.3125 0.328125 2.84375 -0.078125 1.875 -0.890625 C 0.90625 -1.710938 0.414062 -2.828125 0.40625 -4.234375 L 4.640625 -4.234375 C 4.648438 -3.804688 4.769531 -3.445312 5 -3.15625 C 5.226562 -2.863281 5.660156 -2.71875 6.296875 -2.71875 C 6.796875 -2.71875 7.15625 -2.8125 7.375 -3 C 7.59375 -3.195312 7.703125 -3.441406 7.703125 -3.734375 C 7.703125 -4.003906 7.632812 -4.21875 7.5 -4.375 C 7.375 -4.539062 7.140625 -4.691406 6.796875 -4.828125 C 6.453125 -4.972656 5.945312 -5.132812 5.28125 -5.3125 C 4.03125 -5.582031 3.070312 -5.898438 2.40625 -6.265625 C 1.738281 -6.628906 1.273438 -7.0625 1.015625 -7.5625 C 0.753906 -8.070312 0.625 -8.675781 0.625 -9.375 L 0.625 -9.390625 C 0.625 -10.160156 0.820312 -10.835938 1.21875 -11.421875 C 1.613281 -12.015625 2.222656 -12.476562 3.046875 -12.8125 C 3.867188 -13.144531 4.914062 -13.3125 6.1875 -13.3125 C 7.488281 -13.3125 8.550781 -13.125 9.375 -12.75 C 10.195312 -12.375 10.804688 -11.847656 11.203125 -11.171875 C 11.597656 -10.503906 11.800781 -9.71875 11.8125 -8.8125 L 7.75 -8.8125 C 7.738281 -9.25 7.625 -9.597656 7.40625 -9.859375 C 7.195312 -10.128906 6.804688 -10.265625 6.234375 -10.265625 C 5.765625 -10.265625 5.429688 -10.179688 5.234375 -10.015625 C 5.046875 -9.847656 4.953125 -9.640625 4.953125 -9.390625 L 4.953125 -9.375 C 4.953125 -9.070312 5.070312 -8.828125 5.3125 -8.640625 C 5.5625 -8.460938 5.992188 -8.304688 6.609375 -8.171875 C 7.734375 -7.953125 8.648438 -7.695312 9.359375 -7.40625 C 10.078125 -7.125 10.628906 -6.804688 11.015625 -6.453125 C 11.410156 -6.097656 11.6875 -5.695312 11.84375 -5.25 C 12 -4.800781 12.078125 -4.304688 12.078125 -3.765625 C 12.078125 -2.441406 11.566406 -1.425781 10.546875 -0.71875 C 9.535156 -0.0195312 8.113281 0.328125 6.28125 0.328125 Z M 6.28125 0.328125 "/></g></g></g></svg>