<svg xmlns="http://www.w3.org/2000/svg" xmlns:xlink="http://www.w3.org/1999/xlink" width="500" zoomAndPan="magnify" viewBox="0 0 375 374.999991" height="500" preserveAspectRatio="xMidYMid meet" version="1.0"><defs><g/><clipPath id="5c8a7c4834"><path d="M 156.054688 137 L 172 137 L 172 185 L 156.054688 185 Z M 156.054688 137 " clip-rule="nonzero"/></clipPath><clipPath id="d797b953c4"><path d="M 203 78.210938 L 218.929688 78.210938 L 218.929688 185 L 203 185 Z M 203 78.210938 " clip-rule="nonzero"/></clipPath><clipPath id="021f76b8e8"><path d="M 178 225 L 197 225 L 197 244.996094 L 178 244.996094 Z M 178 225 " clip-rule="nonzero"/></clipPath></defs><rect x="-37.5" width="450" fill="#ffffff" y="-37.499999" height="449.999989" fill-opacity="1"/><rect x="-37.5" width="450" fill="#ffffff" y="-37.499999" height="449.999989" fill-opacity="1"/><g clip-path="url(#5c8a7c4834)"><path fill="#00b1e7" d="M 171.621094 137.492188 L 171.621094 178.738281 C 171.621094 181.675781 168.128906 184.082031 163.863281 184.082031 C 159.601562 184.082031 156.105469 181.675781 156.105469 178.738281 L 156.105469 137.492188 " fill-opacity="1" fill-rule="evenodd"/></g><path fill="#25abf6" d="M 195.257812 110.445312 L 195.257812 178.738281 C 195.257812 181.675781 191.761719 184.082031 187.5 184.082031 C 183.234375 184.082031 179.746094 181.675781 179.746094 178.738281 L 179.746094 110.445312 " fill-opacity="1" fill-rule="evenodd"/><g clip-path="url(#d797b953c4)"><path fill="#0086e7" d="M 218.890625 78.210938 L 218.890625 178.738281 C 218.890625 181.675781 215.398438 184.082031 211.132812 184.082031 C 206.875 184.082031 203.382812 181.675781 203.382812 178.738281 L 203.382812 78.210938 " fill-opacity="1" fill-rule="evenodd"/></g><g clip-path="url(#021f76b8e8)"><path fill="#00b1e7" d="M 196.007812 228.785156 L 188.203125 244.394531 C 187.726562 245.355469 187.015625 245.15625 186.664062 244.457031 L 178.863281 228.859375 C 178.542969 228.21875 178.699219 227.472656 179.578125 227.191406 C 181.984375 226.394531 184.609375 225.957031 187.34375 225.953125 L 187.460938 225.953125 C 190.214844 225.953125 192.851562 226.394531 195.269531 227.191406 C 196.523438 227.59375 196.410156 227.980469 196.007812 228.785156 " fill-opacity="1" fill-rule="evenodd"/></g><path fill="#0d3f63" d="M 213.964844 193.109375 L 200.71875 219.550781 C 200.25 220.492188 199.804688 220.480469 198.707031 220.074219 C 195.265625 218.820312 191.476562 218.121094 187.527344 218.121094 L 187.414062 218.121094 C 183.46875 218.121094 179.679688 218.824219 176.234375 220.09375 C 175.109375 220.488281 174.707031 220.4375 174.132812 219.289062 L 161 193.070312 C 160.703125 192.46875 160.753906 191.949219 161.695312 192.050781 C 165.941406 192.542969 170.558594 191.589844 174.078125 189.328125 C 175.414062 188.414062 175.90625 188.445312 177.246094 189.296875 C 179.996094 191.0625 183.609375 192.164062 187.46875 192.179688 L 187.574219 192.179688 C 191.390625 192.152344 194.980469 191.0625 197.703125 189.328125 C 198.753906 188.621094 199.832031 188.621094 200.898438 189.296875 C 204.277344 191.496094 208.726562 192.480469 212.84375 192.101562 C 214.039062 191.992188 214.445312 192.132812 213.964844 193.109375 " fill-opacity="1" fill-rule="evenodd"/><g fill="#0d3f63" fill-opacity="1"><g transform="translate(28.395457, 277.313237)"><g><path d="M 12.15625 0.546875 C 10.070312 0.546875 8.238281 0.171875 6.65625 -0.578125 C 5.070312 -1.335938 3.832031 -2.414062 2.9375 -3.8125 C 2.039062 -5.21875 1.59375 -6.894531 1.59375 -8.84375 L 7.5625 -8.84375 C 7.5625 -7.519531 8.019531 -6.539062 8.9375 -5.90625 C 9.863281 -5.269531 10.921875 -4.953125 12.109375 -4.953125 C 12.867188 -4.953125 13.578125 -5.070312 14.234375 -5.3125 C 14.898438 -5.5625 15.445312 -5.925781 15.875 -6.40625 C 16.300781 -6.882812 16.515625 -7.460938 16.515625 -8.140625 C 16.515625 -8.835938 16.265625 -9.390625 15.765625 -9.796875 C 15.273438 -10.203125 14.613281 -10.53125 13.78125 -10.78125 C 12.957031 -11.039062 12.050781 -11.289062 11.0625 -11.53125 C 10.050781 -11.757812 9.007812 -12.039062 7.9375 -12.375 C 6.875 -12.71875 5.890625 -13.164062 4.984375 -13.71875 C 4.078125 -14.28125 3.347656 -15.035156 2.796875 -15.984375 C 2.253906 -16.929688 1.984375 -18.132812 1.984375 -19.59375 C 1.984375 -22.21875 2.875 -24.238281 4.65625 -25.65625 C 6.4375 -27.070312 8.84375 -27.78125 11.875 -27.78125 C 15 -27.78125 17.414062 -26.992188 19.125 -25.421875 C 20.84375 -23.847656 21.703125 -21.710938 21.703125 -19.015625 L 15.859375 -19.015625 C 15.859375 -20.179688 15.441406 -21.039062 14.609375 -21.59375 C 13.773438 -22.15625 12.8125 -22.4375 11.71875 -22.4375 C 10.757812 -22.4375 9.878906 -22.226562 9.078125 -21.8125 C 8.273438 -21.394531 7.875 -20.742188 7.875 -19.859375 C 7.875 -19.210938 8.113281 -18.703125 8.59375 -18.328125 C 9.070312 -17.953125 9.707031 -17.640625 10.5 -17.390625 C 11.289062 -17.140625 12.164062 -16.898438 13.125 -16.671875 C 14.164062 -16.410156 15.226562 -16.101562 16.3125 -15.75 C 17.40625 -15.40625 18.421875 -14.929688 19.359375 -14.328125 C 20.296875 -13.734375 21.054688 -12.941406 21.640625 -11.953125 C 22.222656 -10.972656 22.515625 -9.726562 22.515625 -8.21875 C 22.515625 -6.25 22.039062 -4.613281 21.09375 -3.3125 C 20.144531 -2.007812 18.890625 -1.039062 17.328125 -0.40625 C 15.773438 0.226562 14.050781 0.546875 12.15625 0.546875 Z M 12.15625 0.546875 "/></g></g></g><g fill="#0d3f63" fill-opacity="1"><g transform="translate(52.495797, 277.313237)"><g><path d="M 21.9375 -27.265625 L 21.9375 -21.78125 L 14.328125 -21.78125 L 14.328125 0 L 8.40625 0 L 8.40625 -21.78125 L 0.859375 -21.78125 L 0.859375 -27.265625 Z M 21.9375 -27.265625 "/></g></g></g><g fill="#0d3f63" fill-opacity="1"><g transform="translate(75.233437, 277.313237)"><g><path d="M 14.09375 0.578125 C 11.945312 0.578125 10.023438 0.117188 8.328125 -0.796875 C 6.640625 -1.722656 5.300781 -2.992188 4.3125 -4.609375 C 3.332031 -6.234375 2.84375 -8.113281 2.84375 -10.25 L 2.84375 -27.265625 L 8.765625 -27.265625 L 8.765625 -10.515625 C 8.765625 -8.828125 9.265625 -7.484375 10.265625 -6.484375 C 11.265625 -5.484375 12.539062 -4.984375 14.09375 -4.984375 C 15.6875 -4.984375 16.976562 -5.484375 17.96875 -6.484375 C 18.96875 -7.484375 19.46875 -8.828125 19.46875 -10.515625 L 19.46875 -27.265625 L 25.359375 -27.265625 L 25.359375 -10.25 C 25.359375 -8.113281 24.867188 -6.234375 23.890625 -4.609375 C 22.921875 -2.992188 21.582031 -1.722656 19.875 -0.796875 C 18.175781 0.117188 16.25 0.578125 14.09375 0.578125 Z M 14.09375 0.578125 "/></g></g></g><g fill="#0d3f63" fill-opacity="1"><g transform="translate(103.42189, 277.313237)"><g><path d="M 13.4375 -27.265625 C 15.4375 -27.265625 17.28125 -26.925781 18.96875 -26.25 C 20.65625 -25.570312 22.113281 -24.625 23.34375 -23.40625 C 24.582031 -22.1875 25.546875 -20.753906 26.234375 -19.109375 C 26.921875 -17.460938 27.265625 -15.648438 27.265625 -13.671875 C 27.265625 -11.703125 26.921875 -9.882812 26.234375 -8.21875 C 25.546875 -6.550781 24.582031 -5.101562 23.34375 -3.875 C 22.113281 -2.644531 20.65625 -1.691406 18.96875 -1.015625 C 17.28125 -0.335938 15.4375 0 13.4375 0 L 3.109375 0 L 3.109375 -27.265625 Z M 13.28125 -5.5 C 14.84375 -5.5 16.21875 -5.847656 17.40625 -6.546875 C 18.601562 -7.242188 19.539062 -8.207031 20.21875 -9.4375 C 20.894531 -10.675781 21.234375 -12.085938 21.234375 -13.671875 C 21.234375 -15.253906 20.894531 -16.65625 20.21875 -17.875 C 19.539062 -19.09375 18.601562 -20.046875 17.40625 -20.734375 C 16.21875 -21.429688 14.84375 -21.78125 13.28125 -21.78125 L 9.03125 -21.78125 L 9.03125 -5.5 Z M 13.28125 -5.5 "/></g></g></g><g fill="#0d3f63" fill-opacity="1"><g transform="translate(132.272221, 277.313237)"><g><path d="M 25.828125 -27.265625 L 16.25 -11.03125 L 16.25 0 L 10.171875 0 L 10.171875 -11.0625 L 0.65625 -27.265625 L 6.9375 -27.265625 L 13.25 -16.359375 L 19.546875 -27.265625 Z M 25.828125 -27.265625 "/></g></g></g><g fill="#0d3f63" fill-opacity="1"><g transform="translate(158.708627, 277.313237)"><g/></g></g><g fill="#0d3f63" fill-opacity="1"><g transform="translate(168.013935, 277.313237)"><g><path d="M 13.59375 -27.265625 C 15.4375 -27.265625 17.078125 -26.851562 18.515625 -26.03125 C 19.960938 -25.21875 21.113281 -24.101562 21.96875 -22.6875 C 22.820312 -21.269531 23.25 -19.664062 23.25 -17.875 C 23.25 -16.082031 22.828125 -14.476562 21.984375 -13.0625 C 21.140625 -11.65625 19.988281 -10.546875 18.53125 -9.734375 C 17.082031 -8.929688 15.4375 -8.53125 13.59375 -8.53125 L 9.03125 -8.53125 L 9.03125 0 L 3.109375 0 L 3.109375 -27.265625 Z M 13.359375 -13.984375 C 14.523438 -13.984375 15.460938 -14.351562 16.171875 -15.09375 C 16.890625 -15.832031 17.25 -16.757812 17.25 -17.875 C 17.25 -19.019531 16.890625 -19.960938 16.171875 -20.703125 C 15.460938 -21.441406 14.523438 -21.8125 13.359375 -21.8125 L 9.03125 -21.8125 L 9.03125 -13.984375 Z M 13.359375 -13.984375 "/></g></g></g><g fill="#0d3f63" fill-opacity="1"><g transform="translate(192.231075, 277.313237)"><g><path d="M 9.03125 -5.5 L 19.46875 -5.5 L 19.46875 0 L 3.109375 0 L 3.109375 -27.265625 L 9.03125 -27.265625 Z M 9.03125 -5.5 "/></g></g></g><g fill="#0d3f63" fill-opacity="1"><g transform="translate(212.554792, 277.313237)"><g><path d="M 21.234375 0 L 19.328125 -5.1875 L 8.453125 -5.1875 L 6.578125 0 L 0.34375 0 L 11.03125 -27.265625 L 16.59375 -27.265625 L 27.625 0 Z M 13.875 -20.0625 L 10.328125 -10.328125 L 17.453125 -10.328125 Z M 13.875 -20.0625 "/></g></g></g><g fill="#0d3f63" fill-opacity="1"><g transform="translate(240.509626, 277.313237)"><g><path d="M 20.40625 -27.265625 L 26.171875 -27.265625 L 26.171875 0 L 21.265625 0 L 8.921875 -17.015625 L 8.921875 0 L 3.109375 0 L 3.109375 -27.265625 L 8.453125 -27.265625 L 20.40625 -10.640625 Z M 20.40625 -27.265625 "/></g></g></g><g fill="#0d3f63" fill-opacity="1"><g transform="translate(269.788232, 277.313237)"><g><path d="M 20.40625 -27.265625 L 26.171875 -27.265625 L 26.171875 0 L 21.265625 0 L 8.921875 -17.015625 L 8.921875 0 L 3.109375 0 L 3.109375 -27.265625 L 8.453125 -27.265625 L 20.40625 -10.640625 Z M 20.40625 -27.265625 "/></g></g></g><g fill="#0d3f63" fill-opacity="1"><g transform="translate(299.066837, 277.313237)"><g><path d="M 9.03125 -5.5 L 19.90625 -5.5 L 19.90625 0 L 3.109375 0 L 3.109375 -27.265625 L 19.46875 -27.265625 L 19.46875 -21.8125 L 9.03125 -21.8125 L 9.03125 -16.4375 L 18.46875 -16.4375 L 18.46875 -11.109375 L 9.03125 -11.109375 Z M 9.03125 -5.5 "/></g></g></g><g fill="#0d3f63" fill-opacity="1"><g transform="translate(320.831109, 277.313237)"><g><path d="M 18.109375 0 L 12.8125 -9.3125 L 9.03125 -9.3125 L 9.03125 0 L 3.109375 0 L 3.109375 -27.265625 L 14.140625 -27.265625 C 15.953125 -27.265625 17.570312 -26.875 19 -26.09375 C 20.4375 -25.320312 21.566406 -24.257812 22.390625 -22.90625 C 23.222656 -21.550781 23.640625 -19.992188 23.640625 -18.234375 C 23.640625 -16.460938 23.191406 -14.878906 22.296875 -13.484375 C 21.398438 -12.097656 20.203125 -11.046875 18.703125 -10.328125 L 24.734375 0 Z M 9.03125 -21.8125 L 9.03125 -14.765625 L 13.75 -14.765625 C 14.96875 -14.765625 15.925781 -15.09375 16.625 -15.75 C 17.332031 -16.414062 17.6875 -17.253906 17.6875 -18.265625 C 17.6875 -19.304688 17.332031 -20.15625 16.625 -20.8125 C 15.925781 -21.476562 14.96875 -21.8125 13.75 -21.8125 Z M 9.03125 -21.8125 "/></g></g></g></svg>