<svg xmlns="http://www.w3.org/2000/svg" xmlns:xlink="http://www.w3.org/1999/xlink" width="500" zoomAndPan="magnify" viewBox="0 0 375 374.999991" height="500" preserveAspectRatio="xMidYMid meet" version="1.0"><defs><g/><clipPath id="45f9d295b2"><path d="M 156.054688 137 L 172 137 L 172 185 L 156.054688 185 Z M 156.054688 137 " clip-rule="nonzero"/></clipPath><clipPath id="77a8621104"><path d="M 203 78.210938 L 219 78.210938 L 219 185 L 203 185 Z M 203 78.210938 " clip-rule="nonzero"/></clipPath><clipPath id="caa6ba757a"><path d="M 178 225 L 197 225 L 197 245.460938 L 178 245.460938 Z M 178 225 " clip-rule="nonzero"/></clipPath></defs><rect x="-37.5" width="450" fill="#ffffff" y="-37.499999" height="449.999989" fill-opacity="1"/><rect x="-37.5" width="450" fill="#ffffff" y="-37.499999" height="449.999989" fill-opacity="1"/><g clip-path="url(#45f9d295b2)"><path fill="#00b1e7" d="M 171.617188 137.496094 L 171.617188 178.742188 C 171.617188 181.679688 168.128906 184.082031 163.863281 184.082031 L 163.859375 184.082031 C 159.597656 184.082031 156.105469 181.679688 156.105469 178.742188 L 156.105469 137.496094 " fill-opacity="1" fill-rule="evenodd"/></g><path fill="#25abf6" d="M 195.253906 110.445312 L 195.253906 178.742188 C 195.253906 181.679688 191.757812 184.082031 187.496094 184.082031 C 183.234375 184.082031 179.746094 181.679688 179.746094 178.742188 L 179.746094 110.445312 " fill-opacity="1" fill-rule="evenodd"/><g clip-path="url(#77a8621104)"><path fill="#0086e7" d="M 218.890625 78.210938 L 218.890625 178.742188 C 218.890625 181.679688 215.398438 184.082031 211.132812 184.082031 C 206.875 184.082031 203.378906 181.679688 203.378906 178.742188 L 203.378906 78.210938 " fill-opacity="1" fill-rule="evenodd"/></g><g clip-path="url(#caa6ba757a)"><path fill="#00b1e7" d="M 196.003906 228.789062 L 188.203125 244.394531 C 187.722656 245.359375 187.011719 245.160156 186.664062 244.457031 L 178.859375 228.863281 C 178.539062 228.21875 178.699219 227.476562 179.578125 227.191406 C 181.984375 226.398438 184.605469 225.957031 187.34375 225.953125 L 187.457031 225.953125 C 190.210938 225.953125 192.851562 226.398438 195.269531 227.191406 C 196.523438 227.59375 196.40625 227.980469 196.003906 228.789062 " fill-opacity="1" fill-rule="evenodd"/></g><path fill="#0d3f63" d="M 213.960938 193.113281 L 200.71875 219.554688 C 200.25 220.496094 199.804688 220.480469 198.707031 220.078125 C 195.261719 218.824219 191.476562 218.121094 187.527344 218.121094 L 187.410156 218.121094 C 183.46875 218.121094 179.679688 218.828125 176.234375 220.09375 C 175.105469 220.492188 174.703125 220.441406 174.128906 219.292969 L 160.996094 193.070312 C 160.699219 192.46875 160.753906 191.949219 161.691406 192.050781 C 165.9375 192.542969 170.558594 191.589844 174.078125 189.328125 C 175.410156 188.414062 175.902344 188.445312 177.246094 189.296875 C 179.992188 191.0625 183.609375 192.167969 187.464844 192.179688 L 187.574219 192.179688 C 191.386719 192.152344 194.980469 191.0625 197.703125 189.328125 C 198.753906 188.625 199.832031 188.625 200.894531 189.296875 C 204.277344 191.496094 208.722656 192.480469 212.84375 192.105469 C 214.035156 191.992188 214.445312 192.136719 213.960938 193.113281 " fill-opacity="1" fill-rule="evenodd"/><g fill="#0d3f63" fill-opacity="1"><g transform="translate(99.281248, 278.210036)"><g><path d="M 15.625 0.578125 C 13.625 0.578125 11.765625 0.222656 10.046875 -0.484375 C 8.335938 -1.203125 6.84375 -2.203125 5.5625 -3.484375 C 4.289062 -4.773438 3.304688 -6.28125 2.609375 -8 C 1.910156 -9.726562 1.5625 -11.59375 1.5625 -13.59375 C 1.5625 -15.625 1.910156 -17.507812 2.609375 -19.25 C 3.304688 -20.988281 4.289062 -22.5 5.5625 -23.78125 C 6.84375 -25.0625 8.335938 -26.054688 10.046875 -26.765625 C 11.765625 -27.484375 13.625 -27.84375 15.625 -27.84375 C 17.832031 -27.84375 19.859375 -27.390625 21.703125 -26.484375 C 23.546875 -25.578125 25.085938 -24.304688 26.328125 -22.671875 C 27.578125 -21.035156 28.410156 -19.140625 28.828125 -16.984375 L 22.90625 -16.984375 C 22.363281 -18.597656 21.441406 -19.878906 20.140625 -20.828125 C 18.835938 -21.773438 17.332031 -22.25 15.625 -22.25 C 14.09375 -22.25 12.710938 -21.863281 11.484375 -21.09375 C 10.265625 -20.320312 9.296875 -19.285156 8.578125 -17.984375 C 7.867188 -16.691406 7.515625 -15.226562 7.515625 -13.59375 C 7.515625 -11.957031 7.867188 -10.492188 8.578125 -9.203125 C 9.296875 -7.921875 10.265625 -6.90625 11.484375 -6.15625 C 12.710938 -5.40625 14.09375 -5.03125 15.625 -5.03125 C 17.414062 -5.03125 18.957031 -5.535156 20.25 -6.546875 C 21.550781 -7.554688 22.445312 -8.929688 22.9375 -10.671875 L 28.90625 -10.671875 C 28.488281 -8.410156 27.660156 -6.4375 26.421875 -4.75 C 25.191406 -3.0625 23.648438 -1.75 21.796875 -0.8125 C 19.941406 0.113281 17.882812 0.578125 15.625 0.578125 Z M 15.625 0.578125 "/></g></g></g><g fill="#0d3f63" fill-opacity="1"><g transform="translate(129.314148, 278.210036)"><g><path d="M 2.734375 0 L 2.734375 -28.625 L 8.40625 -28.625 L 8.40625 0 Z M 2.734375 0 "/></g></g></g><g fill="#0d3f63" fill-opacity="1"><g transform="translate(140.454753, 278.210036)"><g><path d="M 23.140625 -10.59375 C 23.140625 -10.050781 23.097656 -9.492188 23.015625 -8.921875 L 7.125 -8.921875 C 7.363281 -7.492188 7.9375 -6.394531 8.84375 -5.625 C 9.75 -4.863281 10.890625 -4.484375 12.265625 -4.484375 C 13.253906 -4.484375 14.140625 -4.695312 14.921875 -5.125 C 15.703125 -5.550781 16.296875 -6.140625 16.703125 -6.890625 L 22.703125 -6.890625 C 21.929688 -4.609375 20.609375 -2.789062 18.734375 -1.4375 C 16.867188 -0.09375 14.710938 0.578125 12.265625 0.578125 C 10.191406 0.578125 8.328125 0.09375 6.671875 -0.875 C 5.023438 -1.851562 3.726562 -3.175781 2.78125 -4.84375 C 1.832031 -6.519531 1.359375 -8.410156 1.359375 -10.515625 C 1.359375 -12.617188 1.832031 -14.507812 2.78125 -16.1875 C 3.726562 -17.863281 5.023438 -19.1875 6.671875 -20.15625 C 8.328125 -21.132812 10.191406 -21.625 12.265625 -21.625 C 14.421875 -21.625 16.316406 -21.125 17.953125 -20.125 C 19.585938 -19.125 20.859375 -17.789062 21.765625 -16.125 C 22.679688 -14.46875 23.140625 -12.625 23.140625 -10.59375 Z M 12.265625 -16.78125 C 10.992188 -16.78125 9.921875 -16.429688 9.046875 -15.734375 C 8.179688 -15.035156 7.59375 -14.0625 7.28125 -12.8125 L 17.453125 -12.8125 C 16.617188 -15.457031 14.890625 -16.78125 12.265625 -16.78125 Z M 12.265625 -16.78125 "/></g></g></g><g fill="#0d3f63" fill-opacity="1"><g transform="translate(164.917356, 278.210036)"><g><path d="M 19.90625 -21.078125 L 24.15625 -21.078125 L 24.15625 -0.03125 L 19.671875 -0.03125 L 19.203125 -1.90625 C 18.296875 -1.125 17.265625 -0.515625 16.109375 -0.078125 C 14.953125 0.359375 13.710938 0.578125 12.390625 0.578125 C 10.285156 0.578125 8.398438 0.09375 6.734375 -0.875 C 5.078125 -1.851562 3.765625 -3.175781 2.796875 -4.84375 C 1.835938 -6.519531 1.359375 -8.425781 1.359375 -10.5625 C 1.359375 -12.664062 1.835938 -14.550781 2.796875 -16.21875 C 3.765625 -17.894531 5.078125 -19.210938 6.734375 -20.171875 C 8.398438 -21.140625 10.285156 -21.625 12.390625 -21.625 C 13.734375 -21.625 14.988281 -21.394531 16.15625 -20.9375 C 17.332031 -20.476562 18.375 -19.847656 19.28125 -19.046875 Z M 12.859375 -4.796875 C 13.941406 -4.796875 14.914062 -5.039062 15.78125 -5.53125 C 16.65625 -6.019531 17.335938 -6.695312 17.828125 -7.5625 C 18.328125 -8.4375 18.578125 -9.4375 18.578125 -10.5625 C 18.578125 -11.644531 18.328125 -12.617188 17.828125 -13.484375 C 17.335938 -14.359375 16.65625 -15.050781 15.78125 -15.5625 C 14.914062 -16.070312 13.941406 -16.328125 12.859375 -16.328125 C 11.734375 -16.328125 10.742188 -16.070312 9.890625 -15.5625 C 9.035156 -15.050781 8.359375 -14.359375 7.859375 -13.484375 C 7.367188 -12.617188 7.125 -11.644531 7.125 -10.5625 C 7.125 -9.4375 7.367188 -8.445312 7.859375 -7.59375 C 8.359375 -6.738281 9.035156 -6.054688 9.890625 -5.546875 C 10.742188 -5.046875 11.734375 -4.796875 12.859375 -4.796875 Z M 12.859375 -4.796875 "/></g></g></g><g fill="#0d3f63" fill-opacity="1"><g transform="translate(191.795051, 278.210036)"><g><path d="M 13.484375 -21.15625 L 15.34375 -21.15625 L 15.34375 -15.78125 L 12.890625 -15.78125 C 11.285156 -15.78125 10.132812 -15.398438 9.4375 -14.640625 C 8.75 -13.890625 8.40625 -12.660156 8.40625 -10.953125 L 8.40625 0 L 2.734375 0 L 2.734375 -21.03125 L 6.390625 -21.03125 L 7.40625 -18.46875 C 8.832031 -20.257812 10.859375 -21.15625 13.484375 -21.15625 Z M 13.484375 -21.15625 "/></g></g></g><g fill="#0d3f63" fill-opacity="1"><g transform="translate(207.648997, 278.210036)"><g><path d="M 15.625 0.578125 C 13.625 0.578125 11.765625 0.222656 10.046875 -0.484375 C 8.335938 -1.203125 6.84375 -2.203125 5.5625 -3.484375 C 4.289062 -4.773438 3.304688 -6.28125 2.609375 -8 C 1.910156 -9.726562 1.5625 -11.59375 1.5625 -13.59375 C 1.5625 -15.625 1.910156 -17.507812 2.609375 -19.25 C 3.304688 -20.988281 4.289062 -22.5 5.5625 -23.78125 C 6.84375 -25.0625 8.335938 -26.054688 10.046875 -26.765625 C 11.765625 -27.484375 13.625 -27.84375 15.625 -27.84375 C 17.832031 -27.84375 19.859375 -27.390625 21.703125 -26.484375 C 23.546875 -25.578125 25.085938 -24.304688 26.328125 -22.671875 C 27.578125 -21.035156 28.410156 -19.140625 28.828125 -16.984375 L 22.90625 -16.984375 C 22.363281 -18.597656 21.441406 -19.878906 20.140625 -20.828125 C 18.835938 -21.773438 17.332031 -22.25 15.625 -22.25 C 14.09375 -22.25 12.710938 -21.863281 11.484375 -21.09375 C 10.265625 -20.320312 9.296875 -19.285156 8.578125 -17.984375 C 7.867188 -16.691406 7.515625 -15.226562 7.515625 -13.59375 C 7.515625 -11.957031 7.867188 -10.492188 8.578125 -9.203125 C 9.296875 -7.921875 10.265625 -6.90625 11.484375 -6.15625 C 12.710938 -5.40625 14.09375 -5.03125 15.625 -5.03125 C 17.414062 -5.03125 18.957031 -5.535156 20.25 -6.546875 C 21.550781 -7.554688 22.445312 -8.929688 22.9375 -10.671875 L 28.90625 -10.671875 C 28.488281 -8.410156 27.660156 -6.4375 26.421875 -4.75 C 25.191406 -3.0625 23.648438 -1.75 21.796875 -0.8125 C 19.941406 0.113281 17.882812 0.578125 15.625 0.578125 Z M 15.625 0.578125 "/></g></g></g><g fill="#0d3f63" fill-opacity="1"><g transform="translate(237.681897, 278.210036)"><g><path d="M 19.90625 -21.078125 L 24.15625 -21.078125 L 24.15625 -0.03125 L 19.671875 -0.03125 L 19.203125 -1.90625 C 18.296875 -1.125 17.265625 -0.515625 16.109375 -0.078125 C 14.953125 0.359375 13.710938 0.578125 12.390625 0.578125 C 10.285156 0.578125 8.398438 0.09375 6.734375 -0.875 C 5.078125 -1.851562 3.765625 -3.175781 2.796875 -4.84375 C 1.835938 -6.519531 1.359375 -8.425781 1.359375 -10.5625 C 1.359375 -12.664062 1.835938 -14.550781 2.796875 -16.21875 C 3.765625 -17.894531 5.078125 -19.210938 6.734375 -20.171875 C 8.398438 -21.140625 10.285156 -21.625 12.390625 -21.625 C 13.734375 -21.625 14.988281 -21.394531 16.15625 -20.9375 C 17.332031 -20.476562 18.375 -19.847656 19.28125 -19.046875 Z M 12.859375 -4.796875 C 13.941406 -4.796875 14.914062 -5.039062 15.78125 -5.53125 C 16.65625 -6.019531 17.335938 -6.695312 17.828125 -7.5625 C 18.328125 -8.4375 18.578125 -9.4375 18.578125 -10.5625 C 18.578125 -11.644531 18.328125 -12.617188 17.828125 -13.484375 C 17.335938 -14.359375 16.65625 -15.050781 15.78125 -15.5625 C 14.914062 -16.070312 13.941406 -16.328125 12.859375 -16.328125 C 11.734375 -16.328125 10.742188 -16.070312 9.890625 -15.5625 C 9.035156 -15.050781 8.359375 -14.359375 7.859375 -13.484375 C 7.367188 -12.617188 7.125 -11.644531 7.125 -10.5625 C 7.125 -9.4375 7.367188 -8.445312 7.859375 -7.59375 C 8.359375 -6.738281 9.035156 -6.054688 9.890625 -5.546875 C 10.742188 -5.046875 11.734375 -4.796875 12.859375 -4.796875 Z M 12.859375 -4.796875 "/></g></g></g><g fill="#0d3f63" fill-opacity="1"><g transform="translate(264.559592, 278.210036)"><g><path d="M 2.734375 0 L 2.734375 -28.625 L 8.40625 -28.625 L 8.40625 0 Z M 2.734375 0 "/></g></g></g><g fill="#00b1e7" fill-opacity="1"><g transform="translate(109.794221, 297.565557)"><g><path d="M 1.546875 0 L 1.546875 -13 L 3.890625 -13 L 3.890625 -1.953125 L 10.234375 -1.953125 L 10.234375 0 Z M 1.546875 0 "/></g></g></g><g fill="#00b1e7" fill-opacity="1"><g transform="translate(123.791834, 297.565557)"><g><path d="M 1.546875 0 L 1.546875 -13 L 10.75 -13 L 10.75 -11.046875 L 3.890625 -11.046875 L 3.890625 -7.5625 L 10.0625 -7.5625 L 10.0625 -5.71875 L 3.890625 -5.71875 L 3.890625 -1.953125 L 10.828125 -1.953125 L 10.828125 0 Z M 1.546875 0 "/></g></g></g><g fill="#00b1e7" fill-opacity="1"><g transform="translate(138.55927, 297.565557)"><g><path d="M 6.015625 0.265625 C 4.796875 0.265625 3.789062 0.0820312 3 -0.28125 C 2.207031 -0.644531 1.617188 -1.148438 1.234375 -1.796875 C 0.859375 -2.441406 0.65625 -3.1875 0.625 -4.03125 L 2.921875 -4.03125 C 2.929688 -3.632812 3.023438 -3.25 3.203125 -2.875 C 3.390625 -2.5 3.707031 -2.191406 4.15625 -1.953125 C 4.601562 -1.710938 5.226562 -1.59375 6.03125 -1.59375 C 6.976562 -1.59375 7.671875 -1.765625 8.109375 -2.109375 C 8.546875 -2.453125 8.765625 -2.925781 8.765625 -3.53125 C 8.765625 -4.019531 8.660156 -4.40625 8.453125 -4.6875 C 8.253906 -4.976562 7.914062 -5.210938 7.4375 -5.390625 C 6.957031 -5.578125 6.296875 -5.757812 5.453125 -5.9375 C 4.378906 -6.15625 3.519531 -6.421875 2.875 -6.734375 C 2.226562 -7.046875 1.757812 -7.453125 1.46875 -7.953125 C 1.175781 -8.453125 1.03125 -9.0625 1.03125 -9.78125 C 1.03125 -10.78125 1.421875 -11.609375 2.203125 -12.265625 C 2.992188 -12.921875 4.210938 -13.25 5.859375 -13.25 C 7.015625 -13.25 7.960938 -13.070312 8.703125 -12.71875 C 9.441406 -12.363281 9.992188 -11.875 10.359375 -11.25 C 10.722656 -10.632812 10.921875 -9.914062 10.953125 -9.09375 L 8.734375 -9.09375 C 8.710938 -9.488281 8.613281 -9.863281 8.4375 -10.21875 C 8.269531 -10.570312 7.984375 -10.851562 7.578125 -11.0625 C 7.179688 -11.28125 6.628906 -11.390625 5.921875 -11.390625 C 5.003906 -11.390625 4.351562 -11.226562 3.96875 -10.90625 C 3.582031 -10.59375 3.390625 -10.207031 3.390625 -9.75 L 3.390625 -9.734375 C 3.390625 -9.148438 3.597656 -8.71875 4.015625 -8.4375 C 4.429688 -8.164062 5.140625 -7.929688 6.140625 -7.734375 C 7.410156 -7.492188 8.410156 -7.191406 9.140625 -6.828125 C 9.867188 -6.460938 10.382812 -6.007812 10.6875 -5.46875 C 10.988281 -4.9375 11.140625 -4.289062 11.140625 -3.53125 C 11.140625 -2.320312 10.691406 -1.382812 9.796875 -0.71875 C 8.910156 -0.0625 7.648438 0.265625 6.015625 0.265625 Z M 6.015625 0.265625 "/></g></g></g><g fill="#00b1e7" fill-opacity="1"><g transform="translate(153.764109, 297.565557)"><g><path d="M 6.015625 0.265625 C 4.796875 0.265625 3.789062 0.0820312 3 -0.28125 C 2.207031 -0.644531 1.617188 -1.148438 1.234375 -1.796875 C 0.859375 -2.441406 0.65625 -3.1875 0.625 -4.03125 L 2.921875 -4.03125 C 2.929688 -3.632812 3.023438 -3.25 3.203125 -2.875 C 3.390625 -2.5 3.707031 -2.191406 4.15625 -1.953125 C 4.601562 -1.710938 5.226562 -1.59375 6.03125 -1.59375 C 6.976562 -1.59375 7.671875 -1.765625 8.109375 -2.109375 C 8.546875 -2.453125 8.765625 -2.925781 8.765625 -3.53125 C 8.765625 -4.019531 8.660156 -4.40625 8.453125 -4.6875 C 8.253906 -4.976562 7.914062 -5.210938 7.4375 -5.390625 C 6.957031 -5.578125 6.296875 -5.757812 5.453125 -5.9375 C 4.378906 -6.15625 3.519531 -6.421875 2.875 -6.734375 C 2.226562 -7.046875 1.757812 -7.453125 1.46875 -7.953125 C 1.175781 -8.453125 1.03125 -9.0625 1.03125 -9.78125 C 1.03125 -10.78125 1.421875 -11.609375 2.203125 -12.265625 C 2.992188 -12.921875 4.210938 -13.25 5.859375 -13.25 C 7.015625 -13.25 7.960938 -13.070312 8.703125 -12.71875 C 9.441406 -12.363281 9.992188 -11.875 10.359375 -11.25 C 10.722656 -10.632812 10.921875 -9.914062 10.953125 -9.09375 L 8.734375 -9.09375 C 8.710938 -9.488281 8.613281 -9.863281 8.4375 -10.21875 C 8.269531 -10.570312 7.984375 -10.851562 7.578125 -11.0625 C 7.179688 -11.28125 6.628906 -11.390625 5.921875 -11.390625 C 5.003906 -11.390625 4.351562 -11.226562 3.96875 -10.90625 C 3.582031 -10.59375 3.390625 -10.207031 3.390625 -9.75 L 3.390625 -9.734375 C 3.390625 -9.148438 3.597656 -8.71875 4.015625 -8.4375 C 4.429688 -8.164062 5.140625 -7.929688 6.140625 -7.734375 C 7.410156 -7.492188 8.410156 -7.191406 9.140625 -6.828125 C 9.867188 -6.460938 10.382812 -6.007812 10.6875 -5.46875 C 10.988281 -4.9375 11.140625 -4.289062 11.140625 -3.53125 C 11.140625 -2.320312 10.691406 -1.382812 9.796875 -0.71875 C 8.910156 -0.0625 7.648438 0.265625 6.015625 0.265625 Z M 6.015625 0.265625 "/></g></g></g><g fill="#00b1e7" fill-opacity="1"><g transform="translate(168.968949, 297.565557)"><g/></g></g><g fill="#00b1e7" fill-opacity="1"><g transform="translate(177.84022, 297.565557)"><g><path d="M 6.015625 0.265625 C 4.796875 0.265625 3.789062 0.0820312 3 -0.28125 C 2.207031 -0.644531 1.617188 -1.148438 1.234375 -1.796875 C 0.859375 -2.441406 0.65625 -3.1875 0.625 -4.03125 L 2.921875 -4.03125 C 2.929688 -3.632812 3.023438 -3.25 3.203125 -2.875 C 3.390625 -2.5 3.707031 -2.191406 4.15625 -1.953125 C 4.601562 -1.710938 5.226562 -1.59375 6.03125 -1.59375 C 6.976562 -1.59375 7.671875 -1.765625 8.109375 -2.109375 C 8.546875 -2.453125 8.765625 -2.925781 8.765625 -3.53125 C 8.765625 -4.019531 8.660156 -4.40625 8.453125 -4.6875 C 8.253906 -4.976562 7.914062 -5.210938 7.4375 -5.390625 C 6.957031 -5.578125 6.296875 -5.757812 5.453125 -5.9375 C 4.378906 -6.15625 3.519531 -6.421875 2.875 -6.734375 C 2.226562 -7.046875 1.757812 -7.453125 1.46875 -7.953125 C 1.175781 -8.453125 1.03125 -9.0625 1.03125 -9.78125 C 1.03125 -10.78125 1.421875 -11.609375 2.203125 -12.265625 C 2.992188 -12.921875 4.210938 -13.25 5.859375 -13.25 C 7.015625 -13.25 7.960938 -13.070312 8.703125 -12.71875 C 9.441406 -12.363281 9.992188 -11.875 10.359375 -11.25 C 10.722656 -10.632812 10.921875 -9.914062 10.953125 -9.09375 L 8.734375 -9.09375 C 8.710938 -9.488281 8.613281 -9.863281 8.4375 -10.21875 C 8.269531 -10.570312 7.984375 -10.851562 7.578125 -11.0625 C 7.179688 -11.28125 6.628906 -11.390625 5.921875 -11.390625 C 5.003906 -11.390625 4.351562 -11.226562 3.96875 -10.90625 C 3.582031 -10.59375 3.390625 -10.207031 3.390625 -9.75 L 3.390625 -9.734375 C 3.390625 -9.148438 3.597656 -8.71875 4.015625 -8.4375 C 4.429688 -8.164062 5.140625 -7.929688 6.140625 -7.734375 C 7.410156 -7.492188 8.410156 -7.191406 9.140625 -6.828125 C 9.867188 -6.460938 10.382812 -6.007812 10.6875 -5.46875 C 10.988281 -4.9375 11.140625 -4.289062 11.140625 -3.53125 C 11.140625 -2.320312 10.691406 -1.382812 9.796875 -0.71875 C 8.910156 -0.0625 7.648438 0.265625 6.015625 0.265625 Z M 6.015625 0.265625 "/></g></g></g><g fill="#00b1e7" fill-opacity="1"><g transform="translate(193.045062, 297.565557)"><g><path d="M 4.234375 0 L 4.234375 -11.046875 L 0.09375 -11.046875 L 0.09375 -13 L 10.75 -13 L 10.75 -11.046875 L 6.59375 -11.046875 L 6.59375 0 Z M 4.234375 0 "/></g></g></g><g fill="#00b1e7" fill-opacity="1"><g transform="translate(207.252626, 297.565557)"><g><path d="M 1.546875 0 L 1.546875 -13 L 7.234375 -13 C 8.828125 -13 10.003906 -12.675781 10.765625 -12.03125 C 11.535156 -11.394531 11.921875 -10.46875 11.921875 -9.25 L 11.921875 -9.234375 C 11.921875 -8.316406 11.6875 -7.578125 11.21875 -7.015625 C 10.75 -6.453125 10.117188 -6.09375 9.328125 -5.9375 L 9.328125 -5.921875 C 9.953125 -5.765625 10.429688 -5.457031 10.765625 -5 C 11.109375 -4.550781 11.34375 -3.945312 11.46875 -3.1875 L 11.65625 -1.921875 C 11.71875 -1.492188 11.789062 -1.125 11.875 -0.8125 C 11.96875 -0.5 12.078125 -0.226562 12.203125 0 L 9.78125 0 C 9.695312 -0.195312 9.617188 -0.445312 9.546875 -0.75 C 9.472656 -1.0625 9.390625 -1.484375 9.296875 -2.015625 L 9.0625 -3.265625 C 8.976562 -3.785156 8.75 -4.175781 8.375 -4.4375 C 8 -4.707031 7.390625 -4.84375 6.546875 -4.84375 L 3.890625 -4.84375 L 3.890625 0 Z M 3.890625 -6.796875 L 6.984375 -6.796875 C 7.765625 -6.796875 8.390625 -6.96875 8.859375 -7.3125 C 9.328125 -7.664062 9.5625 -8.238281 9.5625 -9.03125 L 9.5625 -9.078125 C 9.5625 -9.703125 9.367188 -10.1875 8.984375 -10.53125 C 8.597656 -10.875 7.988281 -11.046875 7.15625 -11.046875 L 3.890625 -11.046875 Z M 3.890625 -6.796875 "/></g></g></g><g fill="#00b1e7" fill-opacity="1"><g transform="translate(223.402253, 297.565557)"><g><path d="M 1.546875 0 L 1.546875 -13 L 10.75 -13 L 10.75 -11.046875 L 3.890625 -11.046875 L 3.890625 -7.5625 L 10.0625 -7.5625 L 10.0625 -5.71875 L 3.890625 -5.71875 L 3.890625 -1.953125 L 10.828125 -1.953125 L 10.828125 0 Z M 1.546875 0 "/></g></g></g><g fill="#00b1e7" fill-opacity="1"><g transform="translate(238.169685, 297.565557)"><g><path d="M 6.015625 0.265625 C 4.796875 0.265625 3.789062 0.0820312 3 -0.28125 C 2.207031 -0.644531 1.617188 -1.148438 1.234375 -1.796875 C 0.859375 -2.441406 0.65625 -3.1875 0.625 -4.03125 L 2.921875 -4.03125 C 2.929688 -3.632812 3.023438 -3.25 3.203125 -2.875 C 3.390625 -2.5 3.707031 -2.191406 4.15625 -1.953125 C 4.601562 -1.710938 5.226562 -1.59375 6.03125 -1.59375 C 6.976562 -1.59375 7.671875 -1.765625 8.109375 -2.109375 C 8.546875 -2.453125 8.765625 -2.925781 8.765625 -3.53125 C 8.765625 -4.019531 8.660156 -4.40625 8.453125 -4.6875 C 8.253906 -4.976562 7.914062 -5.210938 7.4375 -5.390625 C 6.957031 -5.578125 6.296875 -5.757812 5.453125 -5.9375 C 4.378906 -6.15625 3.519531 -6.421875 2.875 -6.734375 C 2.226562 -7.046875 1.757812 -7.453125 1.46875 -7.953125 C 1.175781 -8.453125 1.03125 -9.0625 1.03125 -9.78125 C 1.03125 -10.78125 1.421875 -11.609375 2.203125 -12.265625 C 2.992188 -12.921875 4.210938 -13.25 5.859375 -13.25 C 7.015625 -13.25 7.960938 -13.070312 8.703125 -12.71875 C 9.441406 -12.363281 9.992188 -11.875 10.359375 -11.25 C 10.722656 -10.632812 10.921875 -9.914062 10.953125 -9.09375 L 8.734375 -9.09375 C 8.710938 -9.488281 8.613281 -9.863281 8.4375 -10.21875 C 8.269531 -10.570312 7.984375 -10.851562 7.578125 -11.0625 C 7.179688 -11.28125 6.628906 -11.390625 5.921875 -11.390625 C 5.003906 -11.390625 4.351562 -11.226562 3.96875 -10.90625 C 3.582031 -10.59375 3.390625 -10.207031 3.390625 -9.75 L 3.390625 -9.734375 C 3.390625 -9.148438 3.597656 -8.71875 4.015625 -8.4375 C 4.429688 -8.164062 5.140625 -7.929688 6.140625 -7.734375 C 7.410156 -7.492188 8.410156 -7.191406 9.140625 -6.828125 C 9.867188 -6.460938 10.382812 -6.007812 10.6875 -5.46875 C 10.988281 -4.9375 11.140625 -4.289062 11.140625 -3.53125 C 11.140625 -2.320312 10.691406 -1.382812 9.796875 -0.71875 C 8.910156 -0.0625 7.648438 0.265625 6.015625 0.265625 Z M 6.015625 0.265625 "/></g></g></g><g fill="#00b1e7" fill-opacity="1"><g transform="translate(253.374522, 297.565557)"><g><path d="M 6.015625 0.265625 C 4.796875 0.265625 3.789062 0.0820312 3 -0.28125 C 2.207031 -0.644531 1.617188 -1.148438 1.234375 -1.796875 C 0.859375 -2.441406 0.65625 -3.1875 0.625 -4.03125 L 2.921875 -4.03125 C 2.929688 -3.632812 3.023438 -3.25 3.203125 -2.875 C 3.390625 -2.5 3.707031 -2.191406 4.15625 -1.953125 C 4.601562 -1.710938 5.226562 -1.59375 6.03125 -1.59375 C 6.976562 -1.59375 7.671875 -1.765625 8.109375 -2.109375 C 8.546875 -2.453125 8.765625 -2.925781 8.765625 -3.53125 C 8.765625 -4.019531 8.660156 -4.40625 8.453125 -4.6875 C 8.253906 -4.976562 7.914062 -5.210938 7.4375 -5.390625 C 6.957031 -5.578125 6.296875 -5.757812 5.453125 -5.9375 C 4.378906 -6.15625 3.519531 -6.421875 2.875 -6.734375 C 2.226562 -7.046875 1.757812 -7.453125 1.46875 -7.953125 C 1.175781 -8.453125 1.03125 -9.0625 1.03125 -9.78125 C 1.03125 -10.78125 1.421875 -11.609375 2.203125 -12.265625 C 2.992188 -12.921875 4.210938 -13.25 5.859375 -13.25 C 7.015625 -13.25 7.960938 -13.070312 8.703125 -12.71875 C 9.441406 -12.363281 9.992188 -11.875 10.359375 -11.25 C 10.722656 -10.632812 10.921875 -9.914062 10.953125 -9.09375 L 8.734375 -9.09375 C 8.710938 -9.488281 8.613281 -9.863281 8.4375 -10.21875 C 8.269531 -10.570312 7.984375 -10.851562 7.578125 -11.0625 C 7.179688 -11.28125 6.628906 -11.390625 5.921875 -11.390625 C 5.003906 -11.390625 4.351562 -11.226562 3.96875 -10.90625 C 3.582031 -10.59375 3.390625 -10.207031 3.390625 -9.75 L 3.390625 -9.734375 C 3.390625 -9.148438 3.597656 -8.71875 4.015625 -8.4375 C 4.429688 -8.164062 5.140625 -7.929688 6.140625 -7.734375 C 7.410156 -7.492188 8.410156 -7.191406 9.140625 -6.828125 C 9.867188 -6.460938 10.382812 -6.007812 10.6875 -5.46875 C 10.988281 -4.9375 11.140625 -4.289062 11.140625 -3.53125 C 11.140625 -2.320312 10.691406 -1.382812 9.796875 -0.71875 C 8.910156 -0.0625 7.648438 0.265625 6.015625 0.265625 Z M 6.015625 0.265625 "/></g></g></g></svg>